<?xml version="1.0" encoding="utf-8"?>
<!DOCTYPE svg PUBLIC "-//W3C//DTD SVG 20010904//EN" "http://www.w3.org/TR/2001/REC-SVG-20010904/DTD/svg10.dtd">
<svg version="1.0" xmlns="http://www.w3.org/2000/svg" width="500px" height="500px" viewBox="0 0 500 500" preserveAspectRatio="xMidYMid meet">
 <g fill="rgb(1,46,103)">
  <path d="M245.5 470.3 c-40.7 -2.6 -74.9 -17.2 -104.3 -44.8 -12.6 -11.8 -30.2 -37.5 -36.4 -53 -10 -25.4 -13.7 -46.6 -12.3 -71 2.2 -40.4 24.8 -91.9 68.1 -155.7 20 -29.3 22.8 -33.2 36.2 -50.8 11.9 -15.6 10.6 -14 32.1 -40.9 21.3 -26.7 22.7 -28.3 24.4 -27.9 1.4 0.3 19.1 21.6 39.6 47.8 59.2 75.6 95 134.6 111.1 183 11.5 34.8 12.8 60.2 4.5 93.2 -9.1 36.3 -34.4 72.3 -65 92.6 -9.1 6 -27.3 15.2 -36.6 18.5 -18.5 6.5 -43.1 10.1 -61.4 9z m-18.5 -9.6 c0 -0.7 -1.3 -2 -2.9 -3 -6.1 -3.6 -18.9 -14.7 -25.7 -22.3 -18.2 -20.3 -30.9 -46.7 -36.8 -76.5 -3.3 -16.5 -11.6 -32.5 -29.1 -56.4 -11.5 -15.7 -26.8 -29.4 -29.2 -26.2 -2.3 2.9 -3.5 11.3 -4 28.7 -0.9 30.8 2.7 47.7 15.6 73.9 10.7 21.6 30.4 44.7 48.2 56.5 20.5 13.6 30 18.2 47.8 22.7 6.3 1.6 11.7 3.2 12 3.4 1 1 4.1 0.4 4.1 -0.8z m63.7 -1.2 c26.9 -7 52 -21.1 69.8 -39 18.1 -18.3 30.1 -37.3 38.3 -60.8 5.7 -16.1 8.3 -31.6 8.3 -49.2 0 -13.9 -2.7 -33.5 -4.8 -35.6 -1.2 -1.2 -6.9 2.9 -14.3 10.2 -9.3 9 -15 16.3 -24.2 30.4 -13.6 21 -17.1 28.4 -18.3 38.2 -0.8 7.4 -5.9 26.9 -9.1 35 -4.6 11.7 -13.3 27.6 -19.9 36.4 -7.4 9.9 -22.7 24.9 -30.7 30.2 -3.2 2.1 -5.8 4.5 -5.8 5.3 0 1.8 -0.2 1.8 10.7 -1.1z m-134.7 -144.3 c0 -8.5 2.7 -31.4 5 -41.7 0.6 -2.7 2.4 -9.7 4.2 -15.4 l3.1 -10.4 -2.9 -11.1 c-2.6 -10.1 -2.9 -12.6 -2.9 -28.1 0 -22.9 3.2 -38.6 13.1 -64.3 2.4 -6.3 4.4 -12.1 4.4 -13 -0.2 -4.5 -18.1 21.7 -39.7 57.8 -11.6 19.4 -25.3 48.2 -31.2 65.6 -4 11.6 -4 13.8 -0.2 15.4 8.2 3.4 36.9 37.5 43.2 51.3 0.7 1.5 1.8 2.7 2.6 2.7 1 0 1.3 -2.1 1.3 -8.8z m202.4 -2.4 c12.7 -19.6 28.2 -37.2 37.1 -42.1 2.2 -1.3 4.1 -3.1 4.3 -4.1 1.4 -6.8 -19.2 -52.8 -35.2 -79.1 -4.7 -7.7 -8.9 -14.7 -9.3 -15.5 -0.7 -1.5 -5.2 -8.7 -6.6 -10.5 -0.4 -0.5 -3.6 -5.3 -7 -10.5 -11.3 -17.1 -14.5 -21.5 -16.6 -22.7 l-2.1 -1.3 2.1 5.3 c13.1 33.3 16.8 47.7 17.6 69.7 0.6 16.7 -0.3 25.6 -3.9 37.8 l-2.1 7.2 2.6 8.8 c1.4 4.8 3.3 11.2 4.1 14.3 2.6 9.5 5.6 29.9 6 41.9 0.3 6.3 0.5 11.6 0.5 11.8 0.3 1.1 2.1 -1.3 8.5 -11z m-79.4 -19.8 c18.2 -6.2 33 -16.9 42.7 -31 6.7 -9.8 8.6 -15.6 6.4 -19.8 -0.5 -0.9 -2.4 -5.3 -4.2 -9.7 -6.5 -15.8 -20.3 -42.2 -27.9 -53.5 -1 -1.4 -3.4 -5.2 -5.5 -8.5 -3.4 -5.3 -13.6 -19.7 -20.5 -28.9 -10.9 -14.5 -15.3 -19.6 -16.9 -19.6 -1.7 0 -3.9 2.3 -12.7 13 -10.1 12.4 -29.8 41.2 -39.6 58 -10.8 18.4 -24.8 48.8 -24.8 53.9 0 1 1.4 4.5 3.1 7.7 9.1 17.4 28.8 33.3 48.2 38.9 13 3.7 40 3.5 51.7 -0.5z m-99.5 -71.5 c12.5 -28.7 33.2 -61.5 59.8 -94.8 6.9 -8.6 8.5 -11.2 7.7 -12.5 -2.3 -4.1 -28.9 -32.2 -30.5 -32.2 -0.7 0 -3.2 3 -5.5 6.7 -2.4 3.8 -5.3 8.4 -6.5 10.3 -9.4 14.8 -21.3 40.2 -26.8 57.5 -7 21.8 -8.2 29.6 -8.2 53 0 15.7 0.4 21.6 1.4 23.4 1.8 3.2 2.8 2 8.6 -11.4z m155.9 5.5 c1.6 -16.3 1.7 -20.4 0.2 -33 -2.7 -22.6 -7.5 -38.9 -18.9 -64.5 -7.1 -15.9 -23.9 -45 -26.9 -46.6 -1.6 -0.9 -2.8 -0.2 -7.2 4.3 -13.2 13.5 -24.6 26.3 -24.6 27.7 0 0.9 3.9 6.6 8.8 12.6 26 32.6 47.8 68 62 100.4 2.8 6.4 3.4 7.3 4.6 6 0.8 -0.8 1.7 -3.9 2 -6.9z m-75.6 -124.2 c2.8 -3.5 9.6 -11 15.2 -16.8 5.5 -5.7 10 -10.7 10 -11 0 -0.4 -2.4 -3.5 -5.3 -7.1 -2.9 -3.5 -8.4 -10.4 -12.1 -15.4 -3.8 -4.9 -7.4 -9.4 -8 -10 -0.6 -0.5 -1.9 -2.2 -2.9 -3.7 -2.3 -3.7 -5.1 -3.5 -7.8 0.5 -1.3 1.7 -2.6 3.4 -2.9 3.7 -0.5 0.5 -10.1 12.4 -20.7 25.7 -2.4 2.9 -4.3 5.8 -4.3 6.5 0 0.7 3.3 4.7 7.3 8.9 3.9 4.2 10.7 11.5 15 16.3 4.3 4.7 8.7 8.6 9.6 8.6 1 0 4.1 -2.8 6.9 -6.2z"/>
 </g>
</svg>